<?xml version="1.0" encoding="UTF-8"?>
<svg xmlns="http://www.w3.org/2000/svg" width="1070pt" height="675pt" viewBox="0 0 1070 675" version="1.1">
  <g id="#ffffffff">
    <path fill="#ffffff" opacity="1.00" d=" M 884.77 0.00 L 897.79 0.00 C 933.47 1.34 968.67 13.51 997.31 34.85 C 1033.95 61.78 1059.65 103.15 1067.14 148.04 C 1069.12 158.65 1069.47 169.46 1070.00 180.22 L 1070.00 492.94 C 1069.69 511.84 1067.64 530.83 1061.93 548.92 C 1051.50 583.20 1030.36 614.06 1002.30 636.32 C 972.85 659.93 935.72 673.54 898.02 675.00 L 885.04 675.00 C 858.59 673.99 832.35 667.24 808.88 654.95 C 781.22 640.56 757.46 618.77 740.71 592.47 C 722.93 564.71 713.15 531.91 712.84 498.94 C 712.80 471.65 712.90 444.35 712.78 417.05 C 709.06 439.35 705.00 461.59 701.09 483.85 C 694.92 516.79 679.19 547.85 656.25 572.29 C 631.50 598.83 598.49 617.57 562.97 625.07 C 524.22 633.41 482.75 628.24 447.18 610.76 C 418.84 596.94 394.37 575.35 377.00 549.05 C 357.99 520.48 347.46 486.32 347.31 451.99 C 336.02 484.83 314.91 514.21 287.28 535.26 C 257.02 558.49 219.19 571.69 181.03 572.10 C 143.82 572.69 106.60 561.12 76.14 539.77 C 40.07 514.68 14.08 475.70 4.52 432.82 C -3.06 399.56 -0.72 364.15 11.10 332.16 C 24.30 295.96 37.44 259.74 50.65 223.56 C 65.61 183.52 95.63 149.43 133.40 129.44 C 162.22 114.01 195.34 106.67 227.99 108.65 C 264.24 110.76 299.74 124.26 328.22 146.80 C 353.55 166.75 373.17 193.77 384.54 223.93 C 390.34 183.21 410.51 144.70 441.08 117.13 C 464.09 96.15 492.67 81.31 523.10 74.68 C 562.99 65.85 605.85 71.39 642.23 89.95 C 671.83 104.90 696.95 128.43 714.09 156.79 C 719.54 109.94 744.71 65.91 782.11 37.20 C 811.31 14.43 847.78 1.36 884.77 0.00 M 364.92 236.18 C 364.91 241.73 364.92 247.28 364.91 252.84 C 361.58 252.83 358.25 252.83 354.92 252.84 C 354.91 258.75 354.93 264.66 354.90 270.58 C 358.24 270.58 361.57 270.59 364.91 270.58 C 364.98 281.05 364.79 291.52 365.00 301.98 C 365.20 308.28 367.13 315.86 373.61 318.42 C 381.70 321.47 390.85 319.86 398.63 316.62 C 399.65 310.19 400.54 303.73 401.59 297.30 C 398.07 299.39 393.90 301.85 389.69 300.30 C 387.09 299.41 386.93 296.30 386.92 294.01 C 386.89 286.20 386.93 278.39 386.92 270.59 C 391.67 270.58 396.41 270.58 401.16 270.59 C 401.17 264.67 401.17 258.75 401.16 252.84 C 396.41 252.83 391.67 252.84 386.92 252.83 C 386.91 244.31 386.92 235.78 386.92 227.26 C 379.58 230.23 372.25 233.20 364.92 236.18 M 484.58 236.17 C 484.58 241.72 484.58 247.28 484.59 252.83 C 481.25 252.83 477.92 252.83 474.59 252.84 C 474.58 258.75 474.58 264.66 474.58 270.58 C 477.91 270.58 481.24 270.59 484.58 270.58 C 484.58 279.72 484.59 288.86 484.57 298.00 C 484.57 303.05 484.82 308.34 487.21 312.91 C 489.08 316.59 492.93 318.85 496.91 319.54 C 504.13 320.76 511.64 319.52 518.31 316.58 C 519.27 310.15 520.22 303.72 521.22 297.30 C 517.75 299.38 513.69 301.77 509.51 300.36 C 507.21 299.72 506.59 297.11 506.61 295.02 C 506.52 286.88 506.62 278.73 506.59 270.59 C 511.33 270.58 516.08 270.59 520.83 270.59 C 520.83 264.67 520.83 258.75 520.83 252.83 C 516.08 252.83 511.33 252.84 506.59 252.83 C 506.58 244.30 506.60 235.78 506.58 227.25 C 499.24 230.22 491.91 233.20 484.58 236.17 M 711.00 236.27 C 711.00 243.20 710.99 250.12 711.01 257.05 C 707.88 254.99 704.76 252.67 701.02 251.90 C 693.94 250.41 685.83 252.28 681.04 257.96 C 675.35 264.54 674.17 273.63 673.74 282.00 C 673.42 292.23 674.06 303.28 679.95 312.04 C 683.78 318.00 691.21 320.76 698.09 319.89 C 702.97 319.66 707.17 316.92 711.01 314.16 C 710.99 315.66 710.99 317.16 711.01 318.67 C 718.56 318.66 726.11 318.67 733.67 318.66 C 733.66 288.20 733.67 257.74 733.66 227.28 C 726.11 230.28 718.56 233.28 711.00 236.27 M 976.41 236.30 C 976.42 243.20 976.39 250.10 976.43 257.00 C 969.16 250.82 957.95 249.29 949.92 254.89 C 942.27 260.26 940.04 270.12 939.38 278.89 C 938.71 290.03 938.96 302.16 945.25 311.83 C 948.98 317.77 956.27 320.70 963.13 319.92 C 968.15 319.79 972.49 317.01 976.45 314.19 C 976.41 315.68 976.40 317.17 976.41 318.66 C 983.99 318.66 991.58 318.67 999.17 318.66 C 999.16 288.20 999.18 257.73 999.16 227.26 C 991.57 230.27 983.99 233.27 976.41 236.30 M 135.58 256.99 C 135.56 255.60 135.51 254.21 135.45 252.83 C 127.97 252.84 120.49 252.83 113.00 252.83 C 113.00 274.75 113.00 296.67 113.00 318.59 C 120.50 318.58 128.00 318.59 135.50 318.58 C 135.50 306.40 135.52 294.21 135.48 282.03 C 135.51 279.44 135.49 276.78 136.40 274.32 C 138.32 269.30 146.76 269.24 148.93 274.09 C 150.03 276.57 149.97 279.36 150.02 282.02 C 149.99 294.21 150.00 306.40 150.01 318.59 C 157.50 318.58 165.00 318.59 172.50 318.58 C 172.51 306.03 172.48 293.49 172.51 280.94 C 172.66 277.74 172.59 273.75 175.52 271.70 C 178.60 269.78 183.50 270.11 185.53 273.41 C 186.97 276.00 186.86 279.08 186.99 281.95 C 187.03 294.16 186.98 306.37 187.01 318.59 C 194.56 318.58 202.11 318.59 209.66 318.59 C 209.64 304.38 209.71 290.18 209.64 275.98 C 209.36 268.98 207.97 261.31 202.76 256.20 C 197.84 251.54 190.50 250.94 184.08 251.71 C 178.53 252.26 173.77 255.44 169.42 258.69 C 160.80 249.40 145.21 249.10 135.58 256.99 M 231.68 257.63 C 224.97 263.06 221.56 271.66 220.77 280.08 C 219.86 289.51 221.01 299.60 226.27 307.69 C 230.25 313.88 236.97 318.05 244.17 319.36 C 255.85 321.43 267.96 318.49 278.08 312.51 C 275.22 307.67 272.29 302.86 269.42 298.02 C 262.87 301.23 255.30 303.97 247.99 301.95 C 243.67 300.74 241.79 296.26 241.03 292.24 C 253.98 292.07 266.92 292.22 279.87 292.16 C 280.09 283.41 279.70 274.28 275.83 266.26 C 272.49 259.18 265.76 253.82 258.09 252.23 C 249.10 250.33 238.96 251.70 231.68 257.63 M 299.68 257.70 C 293.03 263.13 289.64 271.65 288.85 280.03 C 287.95 289.44 289.07 299.50 294.29 307.59 C 298.55 314.31 306.03 318.63 313.86 319.63 C 325.07 321.14 336.51 318.22 346.17 312.50 C 343.29 307.67 340.37 302.86 337.50 298.02 C 330.96 301.22 323.40 303.96 316.09 301.96 C 311.73 300.75 309.88 296.26 309.15 292.21 C 322.08 292.10 335.02 292.20 347.96 292.16 C 348.16 283.35 347.77 274.15 343.83 266.09 C 340.45 259.08 333.75 253.77 326.11 252.22 C 317.10 250.32 306.94 251.73 299.68 257.70 M 428.73 252.79 C 421.79 254.43 415.68 259.83 414.16 266.93 C 412.63 274.03 413.24 282.84 419.40 287.65 C 426.22 292.95 435.01 294.30 443.01 296.93 C 444.45 297.35 446.18 298.33 446.00 300.11 C 446.30 302.26 443.71 303.14 442.00 303.18 C 433.45 303.61 425.18 300.63 417.35 297.52 C 415.61 303.23 413.81 308.93 412.08 314.65 C 423.80 319.03 436.65 321.44 449.08 319.08 C 456.27 317.72 463.58 313.27 465.64 305.85 C 467.60 298.72 467.59 289.64 461.59 284.38 C 454.78 278.57 445.60 277.26 437.40 274.39 C 435.90 273.83 433.92 272.96 434.22 271.01 C 434.01 268.98 436.28 268.26 437.90 268.23 C 445.84 267.73 453.45 270.64 460.62 273.69 C 462.29 267.86 463.98 262.03 465.65 256.20 C 453.97 251.82 440.99 249.88 428.73 252.79 M 533.97 257.40 C 535.90 262.41 537.91 267.40 539.88 272.40 C 547.00 268.59 555.57 266.31 563.54 268.50 C 567.71 269.87 567.45 274.90 567.52 278.46 C 557.80 274.67 545.62 274.40 537.06 281.04 C 529.63 287.04 528.89 297.85 531.36 306.45 C 533.36 313.82 540.33 319.08 547.82 319.77 C 554.81 320.91 561.76 318.37 567.45 314.43 C 567.42 315.81 567.41 317.19 567.41 318.58 C 574.52 318.59 581.63 318.58 588.75 318.59 C 588.75 304.37 588.74 290.16 588.76 275.95 C 588.79 271.49 588.08 266.95 586.03 262.95 C 583.11 256.76 576.69 252.96 570.06 252.05 C 557.85 250.31 545.16 252.23 533.97 257.40 M 624.78 257.10 C 624.76 256.04 624.74 253.90 624.72 252.84 C 617.23 252.83 609.74 252.83 602.25 252.84 C 602.25 274.75 602.25 296.67 602.25 318.59 C 609.72 318.58 617.19 318.58 624.66 318.59 C 624.66 306.73 624.68 294.88 624.65 283.03 C 624.68 280.37 624.66 277.67 625.40 275.09 C 626.94 269.34 636.44 268.92 638.81 274.23 C 639.94 276.98 639.87 280.02 639.93 282.94 C 639.90 294.82 639.93 306.70 639.91 318.58 C 647.47 318.59 655.02 318.58 662.58 318.58 C 662.58 304.69 662.59 290.80 662.58 276.92 C 662.45 269.87 661.09 262.26 656.17 256.89 C 651.60 252.00 644.40 250.97 638.04 251.58 C 633.11 251.85 628.73 254.35 624.78 257.10 M 749.23 257.41 C 751.17 262.41 753.17 267.40 755.13 272.41 C 762.23 268.58 770.76 266.35 778.72 268.47 C 782.98 269.81 782.75 274.88 782.74 278.48 C 773.00 274.61 760.69 274.41 752.17 281.17 C 744.83 287.25 744.17 298.05 746.67 306.62 C 748.71 313.83 755.52 318.99 762.87 319.75 C 769.92 320.93 776.99 318.46 782.69 314.40 C 782.66 315.79 782.65 317.18 782.66 318.58 C 789.77 318.59 796.88 318.58 804.00 318.58 C 804.01 304.39 803.99 290.19 804.01 275.99 C 804.03 271.50 803.36 266.90 801.26 262.88 C 798.41 256.90 792.26 253.15 785.85 252.14 C 773.49 250.25 760.58 252.15 749.23 257.41 M 819.07 257.39 C 821.00 262.41 823.00 267.40 824.98 272.40 C 832.09 268.59 840.63 266.33 848.59 268.49 C 852.81 269.83 852.55 274.88 852.60 278.45 C 843.06 274.74 831.23 274.43 822.67 280.63 C 814.64 286.68 813.81 298.21 816.68 307.14 C 818.97 314.54 826.34 319.47 833.92 319.89 C 840.59 320.71 847.11 318.16 852.53 314.43 C 852.50 315.81 852.49 317.19 852.49 318.58 C 859.63 318.59 866.77 318.58 873.91 318.59 C 873.92 304.72 873.93 290.86 873.91 277.00 C 873.92 271.95 873.28 266.73 870.76 262.27 C 867.73 256.40 861.46 252.93 855.08 252.04 C 842.90 250.32 830.24 252.24 819.07 257.39 M 909.79 257.32 C 909.80 256.20 909.83 253.96 909.85 252.83 C 902.34 252.82 894.84 252.85 887.35 252.82 C 887.32 274.74 887.34 296.66 887.34 318.59 C 894.83 318.58 902.33 318.58 909.83 318.59 C 909.83 306.74 909.84 294.89 909.82 283.05 C 909.87 280.23 909.94 277.09 911.87 274.83 C 914.26 272.14 918.28 271.72 921.61 272.54 C 924.65 273.32 926.94 275.61 929.23 277.62 C 930.94 269.75 932.77 261.90 934.49 254.03 C 926.59 249.68 916.17 250.80 909.79 257.32 M 319.43 336.60 C 313.02 338.75 310.39 347.17 314.21 352.68 C 318.39 358.33 326.89 358.85 332.88 356.08 C 338.91 353.43 340.50 344.69 336.22 339.86 C 332.15 335.20 324.98 334.61 319.43 336.60 M 506.39 336.52 C 499.70 338.55 497.00 347.37 501.10 352.92 C 505.44 358.44 513.97 358.84 519.92 355.92 C 525.65 353.13 527.10 344.78 523.08 340.00 C 519.09 335.28 511.94 334.61 506.39 336.52 M 421.75 345.81 C 421.75 373.23 421.75 400.66 421.75 428.08 C 429.25 428.09 436.75 428.08 444.25 428.08 C 444.25 397.65 444.26 367.21 444.24 336.78 C 436.73 339.76 429.25 342.80 421.75 345.81 M 860.26 345.69 C 860.24 351.23 860.25 356.78 860.25 362.33 C 856.91 362.33 853.58 362.34 850.25 362.33 C 850.25 368.25 850.25 374.16 850.25 380.08 C 853.58 380.08 856.91 380.08 860.25 380.09 C 860.26 389.40 860.24 398.71 860.25 408.02 C 860.29 413.08 860.61 418.40 863.18 422.90 C 865.18 426.42 869.04 428.49 872.96 429.11 C 880.07 430.22 887.45 428.98 894.01 426.08 C 894.96 419.65 895.91 413.22 896.93 406.80 C 893.42 408.92 889.27 411.33 885.06 409.82 C 882.67 409.03 882.29 406.23 882.26 404.08 C 882.20 396.08 882.28 388.08 882.25 380.09 C 886.99 380.08 891.74 380.07 896.49 380.10 C 896.50 374.18 896.50 368.26 896.50 362.34 C 891.75 362.33 887.00 362.34 882.25 362.33 C 882.25 353.81 882.25 345.30 882.25 336.78 C 874.91 339.73 867.59 342.72 860.26 345.69 M 128.98 362.05 C 121.76 363.48 115.17 368.80 113.49 376.15 C 111.92 383.14 112.35 391.81 118.22 396.78 C 125.10 402.46 134.25 403.76 142.47 406.51 C 144.02 406.94 145.68 408.22 145.23 410.06 C 145.26 412.11 142.60 412.56 141.00 412.71 C 132.53 413.04 124.36 410.12 116.61 407.02 C 114.87 412.74 113.08 418.44 111.34 424.15 C 122.96 428.52 135.70 430.90 148.05 428.65 C 155.22 427.33 162.59 423.06 164.79 415.70 C 166.87 408.54 166.92 399.42 161.01 394.02 C 153.89 387.79 144.08 386.79 135.57 383.43 C 132.62 382.80 132.80 377.93 135.97 377.92 C 144.29 376.84 152.35 380.05 159.88 383.18 C 161.57 377.36 163.23 371.53 164.92 365.71 C 153.54 361.43 140.98 359.54 128.98 362.05 M 198.46 361.62 C 191.16 362.92 184.26 367.01 180.24 373.33 C 174.53 382.02 173.79 393.00 175.13 403.05 C 176.47 413.08 182.46 422.95 192.11 426.86 C 204.03 431.71 219.43 430.19 228.55 420.51 C 235.42 413.23 237.50 402.75 237.07 393.03 C 236.87 383.90 233.94 374.28 226.86 368.13 C 219.21 361.40 208.21 359.86 198.46 361.62 M 252.17 372.24 C 246.63 379.88 245.33 389.74 245.89 398.95 C 246.35 407.28 248.87 416.01 255.13 421.86 C 262.89 429.27 274.70 430.80 284.84 428.59 C 292.92 426.74 298.81 420.34 303.25 413.71 C 298.47 409.98 293.69 406.24 288.91 402.51 C 286.01 406.47 282.52 411.52 276.92 411.01 C 272.24 410.99 269.45 406.40 268.85 402.25 C 267.91 396.03 267.75 389.27 270.44 383.45 C 272.42 378.87 279.08 378.13 282.49 381.48 C 284.35 383.37 285.64 385.71 287.04 387.95 C 292.24 383.99 297.45 380.05 302.64 376.09 C 299.84 371.77 296.58 367.58 292.13 364.87 C 286.15 361.06 278.74 360.42 271.85 361.27 C 264.19 362.12 256.68 365.88 252.17 372.24 M 352.87 366.93 C 354.82 371.92 356.81 376.91 358.77 381.90 C 365.82 378.13 374.25 375.90 382.16 377.92 C 386.57 379.11 386.39 384.33 386.45 387.96 C 376.84 384.26 364.88 383.90 356.31 390.27 C 348.44 396.35 347.64 407.72 350.45 416.58 C 352.67 423.76 359.67 428.73 367.05 429.33 C 373.94 430.34 380.76 427.82 386.36 423.93 C 386.35 424.97 386.34 427.05 386.33 428.08 C 393.44 428.08 400.55 428.09 407.66 428.08 C 407.62 413.05 407.76 398.01 407.60 382.98 C 407.51 373.59 401.34 364.14 391.81 362.17 C 378.80 359.39 364.91 361.39 352.87 366.93 M 560.42 367.19 C 560.46 365.98 560.53 363.55 560.56 362.34 C 553.04 362.33 545.52 362.34 538.01 362.33 C 537.99 384.25 538.00 406.16 538.00 428.08 C 545.50 428.08 553.00 428.09 560.50 428.08 C 560.51 415.36 560.49 402.64 560.50 389.93 C 560.65 386.92 560.65 383.21 563.38 381.29 C 566.42 379.30 571.22 379.59 573.43 382.70 C 575.00 385.14 574.92 388.18 575.07 390.97 C 575.11 403.34 575.07 415.71 575.08 428.08 C 582.56 428.08 590.03 428.09 597.50 428.07 C 597.50 416.07 597.51 404.07 597.49 392.07 C 597.55 389.17 597.49 386.16 598.62 383.44 C 600.70 379.16 607.63 378.88 610.36 382.63 C 611.92 385.10 611.85 388.15 611.99 390.97 C 612.02 403.34 611.98 415.71 612.00 428.08 C 619.55 428.08 627.11 428.09 634.66 428.08 C 634.65 414.03 634.69 399.98 634.65 385.93 C 634.45 378.88 633.11 371.22 628.04 365.96 C 622.63 360.64 614.27 360.31 607.21 361.53 C 602.32 362.31 598.52 365.66 594.31 367.94 C 591.41 365.74 588.63 363.16 585.05 362.13 C 576.74 359.71 566.64 360.63 560.42 367.19 M 670.75 366.78 C 670.71 365.29 670.67 363.81 670.64 362.33 C 663.15 362.34 655.66 362.33 648.17 362.33 C 648.17 392.33 648.16 422.33 648.17 452.33 C 655.64 449.33 663.11 446.33 670.58 443.32 C 670.58 436.85 670.60 430.39 670.57 423.93 C 677.75 429.87 688.50 431.61 696.61 426.51 C 704.81 421.33 707.36 411.05 708.03 401.98 C 708.67 391.02 708.43 379.16 702.43 369.56 C 698.67 363.30 691.08 360.21 683.96 361.03 C 678.96 361.17 674.70 364.02 670.75 366.78 M 720.30 366.93 C 722.26 371.93 724.25 376.92 726.21 381.92 C 733.35 378.09 741.96 375.79 749.94 378.04 C 754.10 379.44 753.77 384.43 753.85 387.97 C 743.97 384.12 731.43 383.87 722.94 390.95 C 715.83 397.14 715.28 407.81 717.80 416.29 C 719.90 423.46 726.73 428.56 734.07 429.27 C 741.08 430.43 748.08 427.91 753.79 423.94 C 753.76 425.31 753.74 426.69 753.74 428.08 C 760.85 428.09 767.97 428.08 775.08 428.08 C 775.04 413.05 775.17 398.01 775.02 382.98 C 774.93 373.84 769.12 364.53 759.89 362.36 C 746.72 359.26 732.54 361.33 720.30 366.93 M 792.28 372.29 C 786.76 379.96 785.47 389.83 786.05 399.05 C 786.51 407.31 789.03 415.94 795.19 421.79 C 803.01 429.30 814.94 430.84 825.18 428.54 C 833.18 426.64 838.97 420.29 843.40 413.73 C 838.63 409.98 833.84 406.25 829.07 402.51 C 826.13 406.50 822.56 411.63 816.89 410.99 C 811.77 410.83 809.21 405.46 808.78 401.00 C 808.15 394.98 807.97 388.40 810.89 382.91 C 813.08 378.78 819.28 378.32 822.54 381.40 C 824.47 383.28 825.76 385.69 827.20 387.95 C 832.39 383.98 837.60 380.05 842.79 376.08 C 840.08 371.94 836.99 367.90 832.78 365.19 C 826.69 361.10 819.00 360.38 811.89 361.29 C 804.24 362.14 796.78 365.95 792.28 372.29 M 314.09 362.33 C 314.08 384.25 314.08 406.16 314.08 428.08 C 321.58 428.10 329.08 428.05 336.58 428.11 C 336.60 406.18 336.58 384.26 336.59 362.34 C 329.08 362.33 321.58 362.34 314.09 362.33 M 500.81 362.35 C 500.87 384.26 500.81 406.17 500.84 428.08 C 508.33 428.09 515.83 428.08 523.33 428.08 C 523.34 406.17 523.33 384.26 523.34 362.35 C 515.83 362.33 508.32 362.32 500.81 362.35 Z"></path>
    <path fill="#ffffff" opacity="1.00" d=" M 244.86 269.82 C 247.69 267.62 251.76 267.78 254.93 269.12 C 258.32 270.75 259.06 274.81 260.02 278.07 C 253.71 278.09 247.40 278.09 241.09 278.07 C 241.83 275.15 242.35 271.81 244.86 269.82 Z"></path>
    <path fill="#ffffff" opacity="1.00" d=" M 312.39 270.31 C 315.14 267.60 319.63 267.69 322.99 269.11 C 326.39 270.74 327.13 274.81 328.12 278.07 C 321.80 278.09 315.48 278.09 309.17 278.07 C 309.88 275.37 310.31 272.36 312.39 270.31 Z"></path>
    <path fill="#ffffff" opacity="1.00" d=" M 698.61 271.61 C 702.17 268.20 707.62 270.43 711.02 272.98 C 711.00 281.45 710.95 289.92 711.05 298.39 C 707.73 300.94 702.58 303.12 698.94 300.01 C 695.73 296.15 696.17 290.70 695.90 285.99 C 696.08 281.17 695.57 275.69 698.61 271.61 Z"></path>
    <path fill="#ffffff" opacity="1.00" d=" M 964.41 271.25 C 968.10 268.41 973.10 270.50 976.43 272.94 C 976.40 281.45 976.40 289.97 976.44 298.48 C 973.16 300.87 968.39 302.96 964.68 300.29 C 961.11 296.53 961.65 290.79 961.34 285.98 C 961.56 281.05 960.92 275.23 964.41 271.25 Z"></path>
    <path fill="#ffffff" opacity="1.00" d=" M 555.22 303.68 C 549.47 302.06 549.17 291.93 555.05 290.30 C 559.19 289.36 563.48 290.33 567.42 291.69 C 567.41 294.79 567.41 297.89 567.42 301.00 C 563.79 303.15 559.46 304.78 555.22 303.68 Z"></path>
    <path fill="#ffffff" opacity="1.00" d=" M 771.20 303.85 C 764.94 302.94 764.16 292.35 770.05 290.38 C 774.24 289.29 778.63 290.33 782.65 291.66 C 782.66 294.76 782.66 297.85 782.68 300.96 C 779.27 303.05 775.26 304.58 771.20 303.85 Z"></path>
    <path fill="#ffffff" opacity="1.00" d=" M 840.93 303.83 C 834.67 302.82 834.03 292.07 840.09 290.32 C 844.24 289.35 848.55 290.33 852.50 291.68 C 852.49 294.79 852.49 297.90 852.50 301.01 C 849.04 303.06 845.01 304.61 840.93 303.83 Z"></path>
    <path fill="#ffffff" opacity="1.00" d=" M 202.29 380.23 C 205.39 378.67 209.65 379.35 211.75 382.24 C 214.22 385.59 214.43 389.97 214.60 393.99 C 214.60 398.69 214.52 403.80 211.89 407.89 C 209.46 411.78 203.20 412.11 200.32 408.59 C 197.31 404.78 197.14 399.63 197.06 395.00 C 197.22 389.87 197.27 383.17 202.29 380.23 Z"></path>
    <path fill="#ffffff" opacity="1.00" d=" M 670.65 382.28 C 674.19 380.04 679.39 377.75 683.00 381.06 C 686.09 385.34 685.57 391.04 685.82 396.05 C 685.55 400.66 686.03 406.08 682.75 409.79 C 678.94 412.50 673.97 410.40 670.57 408.00 C 670.63 399.42 670.50 390.85 670.65 382.28 Z"></path>
    <path fill="#ffffff" opacity="1.00" d=" M 375.00 413.39 C 368.45 412.65 367.73 401.36 374.08 399.78 C 378.19 398.91 382.40 399.89 386.33 401.16 C 386.33 404.24 386.33 407.33 386.37 410.42 C 383.00 412.54 379.03 414.03 375.00 413.39 Z"></path>
    <path fill="#ffffff" opacity="1.00" d=" M 742.06 413.31 C 736.02 412.20 735.33 401.98 741.03 399.94 C 745.25 398.79 749.67 399.83 753.73 401.16 C 753.76 404.30 753.76 407.45 753.69 410.59 C 750.19 412.58 746.14 414.14 742.06 413.31 Z"></path>
  </g>
  <g id="#fbb03bff">
    <path fill="#fbb03b" opacity="1.00" d=" M 364.92 236.18 C 372.25 233.20 379.58 230.23 386.92 227.26 C 386.92 235.78 386.91 244.31 386.92 252.83 C 391.67 252.84 396.41 252.83 401.16 252.84 C 401.17 258.75 401.17 264.67 401.16 270.59 C 396.41 270.58 391.67 270.58 386.92 270.59 C 386.93 278.39 386.89 286.20 386.92 294.01 C 386.93 296.30 387.09 299.41 389.69 300.30 C 393.90 301.85 398.07 299.39 401.59 297.30 C 400.54 303.73 399.65 310.19 398.63 316.62 C 390.85 319.86 381.70 321.47 373.61 318.42 C 367.13 315.86 365.20 308.28 365.00 301.98 C 364.79 291.52 364.98 281.05 364.91 270.58 C 361.57 270.59 358.24 270.58 354.90 270.58 C 354.93 264.66 354.91 258.75 354.92 252.84 C 358.25 252.83 361.58 252.83 364.91 252.84 C 364.92 247.28 364.91 241.73 364.92 236.18 Z"></path>
    <path fill="#fbb03b" opacity="1.00" d=" M 484.58 236.17 C 491.91 233.20 499.24 230.22 506.58 227.25 C 506.60 235.78 506.58 244.30 506.59 252.83 C 511.33 252.84 516.08 252.83 520.83 252.83 C 520.83 258.75 520.83 264.67 520.83 270.59 C 516.08 270.59 511.33 270.58 506.59 270.59 C 506.62 278.73 506.52 286.88 506.61 295.02 C 506.59 297.11 507.21 299.72 509.51 300.36 C 513.69 301.77 517.75 299.38 521.22 297.30 C 520.22 303.72 519.27 310.15 518.31 316.58 C 511.64 319.52 504.13 320.76 496.91 319.54 C 492.93 318.85 489.08 316.59 487.21 312.91 C 484.82 308.34 484.57 303.05 484.57 298.00 C 484.59 288.86 484.58 279.72 484.58 270.58 C 481.24 270.59 477.91 270.58 474.58 270.58 C 474.58 264.66 474.58 258.75 474.59 252.84 C 477.92 252.83 481.25 252.83 484.59 252.83 C 484.58 247.28 484.58 241.72 484.58 236.17 Z"></path>
    <path fill="#fbb03b" opacity="1.00" d=" M 711.00 236.27 C 718.56 233.28 726.11 230.28 733.66 227.28 C 733.67 257.74 733.66 288.20 733.67 318.66 C 726.11 318.67 718.56 318.66 711.01 318.67 C 710.99 317.16 710.99 315.66 711.01 314.16 C 707.17 316.92 702.97 319.66 698.09 319.89 C 691.21 320.76 683.78 318.00 679.95 312.04 C 674.06 303.28 673.42 292.23 673.74 282.00 C 674.17 273.63 675.35 264.54 681.04 257.96 C 685.83 252.28 693.94 250.41 701.02 251.90 C 704.76 252.67 707.88 254.99 711.01 257.05 C 710.99 250.12 711.00 243.20 711.00 236.27 M 698.61 271.61 C 695.57 275.69 696.08 281.17 695.90 285.99 C 696.17 290.70 695.73 296.15 698.94 300.01 C 702.58 303.12 707.73 300.94 711.05 298.39 C 710.95 289.92 711.00 281.45 711.02 272.98 C 707.62 270.43 702.17 268.20 698.61 271.61 Z"></path>
    <path fill="#fbb03b" opacity="1.00" d=" M 976.41 236.30 C 983.99 233.27 991.57 230.27 999.16 227.26 C 999.18 257.73 999.16 288.20 999.17 318.66 C 991.58 318.67 983.99 318.66 976.41 318.66 C 976.40 317.17 976.41 315.68 976.45 314.19 C 972.49 317.01 968.15 319.79 963.13 319.92 C 956.27 320.70 948.98 317.77 945.25 311.83 C 938.96 302.16 938.71 290.03 939.38 278.89 C 940.04 270.12 942.27 260.26 949.92 254.89 C 957.95 249.29 969.16 250.82 976.43 257.00 C 976.39 250.10 976.42 243.20 976.41 236.30 M 964.41 271.25 C 960.92 275.23 961.56 281.05 961.34 285.98 C 961.65 290.79 961.11 296.53 964.68 300.29 C 968.39 302.96 973.16 300.87 976.44 298.48 C 976.40 289.97 976.40 281.45 976.43 272.94 C 973.10 270.50 968.10 268.41 964.41 271.25 Z"></path>
    <path fill="#fbb03b" opacity="1.00" d=" M 135.58 256.99 C 145.21 249.10 160.80 249.40 169.42 258.69 C 173.77 255.44 178.53 252.26 184.08 251.71 C 190.50 250.94 197.84 251.54 202.76 256.20 C 207.97 261.31 209.36 268.98 209.64 275.98 C 209.71 290.18 209.64 304.38 209.66 318.59 C 202.11 318.59 194.56 318.58 187.01 318.59 C 186.98 306.37 187.03 294.16 186.99 281.95 C 186.86 279.08 186.97 276.00 185.53 273.41 C 183.50 270.11 178.60 269.78 175.52 271.70 C 172.59 273.75 172.66 277.74 172.51 280.94 C 172.48 293.49 172.51 306.03 172.50 318.58 C 165.00 318.59 157.50 318.58 150.01 318.59 C 150.00 306.40 149.99 294.21 150.02 282.02 C 149.97 279.36 150.03 276.57 148.93 274.09 C 146.76 269.24 138.32 269.30 136.40 274.32 C 135.49 276.78 135.51 279.44 135.48 282.03 C 135.52 294.21 135.50 306.40 135.50 318.58 C 128.00 318.59 120.50 318.58 113.00 318.59 C 113.00 296.67 113.00 274.75 113.00 252.83 C 120.49 252.83 127.97 252.84 135.45 252.83 C 135.51 254.21 135.56 255.60 135.58 256.99 Z"></path>
    <path fill="#fbb03b" opacity="1.00" d=" M 231.68 257.63 C 238.96 251.70 249.10 250.33 258.09 252.23 C 265.76 253.82 272.49 259.18 275.83 266.26 C 279.70 274.28 280.09 283.41 279.87 292.16 C 266.92 292.22 253.98 292.07 241.03 292.24 C 241.79 296.26 243.67 300.74 247.99 301.95 C 255.30 303.97 262.87 301.23 269.42 298.02 C 272.29 302.86 275.22 307.67 278.08 312.51 C 267.96 318.49 255.85 321.43 244.17 319.36 C 236.97 318.05 230.25 313.88 226.27 307.69 C 221.01 299.60 219.86 289.51 220.77 280.08 C 221.56 271.66 224.97 263.06 231.68 257.63 M 244.86 269.82 C 242.35 271.81 241.83 275.15 241.09 278.07 C 247.40 278.09 253.71 278.09 260.02 278.07 C 259.06 274.81 258.32 270.75 254.93 269.12 C 251.76 267.78 247.69 267.62 244.86 269.82 Z"></path>
    <path fill="#fbb03b" opacity="1.00" d=" M 299.68 257.70 C 306.94 251.73 317.10 250.32 326.11 252.22 C 333.75 253.77 340.45 259.08 343.83 266.09 C 347.77 274.15 348.16 283.35 347.96 292.16 C 335.02 292.20 322.08 292.10 309.15 292.21 C 309.88 296.26 311.73 300.75 316.09 301.96 C 323.40 303.96 330.96 301.22 337.50 298.02 C 340.37 302.86 343.29 307.67 346.17 312.50 C 336.51 318.22 325.07 321.14 313.86 319.63 C 306.03 318.63 298.55 314.31 294.29 307.59 C 289.07 299.50 287.95 289.44 288.85 280.03 C 289.64 271.65 293.03 263.13 299.68 257.70 M 312.39 270.31 C 310.31 272.36 309.88 275.37 309.17 278.07 C 315.48 278.09 321.80 278.09 328.12 278.07 C 327.13 274.81 326.39 270.74 322.99 269.11 C 319.63 267.69 315.14 267.60 312.39 270.31 Z"></path>
    <path fill="#fbb03b" opacity="1.00" d=" M 428.73 252.79 C 440.99 249.88 453.97 251.82 465.65 256.20 C 463.98 262.03 462.29 267.86 460.62 273.69 C 453.45 270.64 445.84 267.73 437.90 268.23 C 436.28 268.26 434.01 268.98 434.22 271.01 C 433.92 272.96 435.90 273.83 437.40 274.39 C 445.60 277.26 454.78 278.57 461.59 284.38 C 467.59 289.64 467.60 298.72 465.64 305.85 C 463.58 313.27 456.27 317.72 449.08 319.08 C 436.65 321.44 423.80 319.03 412.08 314.65 C 413.81 308.93 415.61 303.23 417.35 297.52 C 425.18 300.63 433.45 303.61 442.00 303.18 C 443.71 303.14 446.30 302.26 446.00 300.11 C 446.18 298.33 444.45 297.35 443.01 296.93 C 435.01 294.30 426.22 292.95 419.40 287.65 C 413.24 282.84 412.63 274.03 414.16 266.93 C 415.68 259.83 421.79 254.43 428.73 252.79 Z"></path>
    <path fill="#fbb03b" opacity="1.00" d=" M 533.97 257.40 C 545.16 252.23 557.85 250.31 570.06 252.05 C 576.69 252.96 583.11 256.76 586.03 262.95 C 588.08 266.95 588.79 271.49 588.76 275.95 C 588.74 290.16 588.75 304.37 588.75 318.59 C 581.63 318.58 574.52 318.59 567.41 318.58 C 567.41 317.19 567.42 315.81 567.45 314.43 C 561.76 318.37 554.81 320.91 547.82 319.77 C 540.33 319.08 533.36 313.82 531.36 306.45 C 528.89 297.85 529.63 287.04 537.06 281.04 C 545.62 274.40 557.80 274.67 567.52 278.46 C 567.45 274.90 567.71 269.87 563.54 268.50 C 555.57 266.31 547.00 268.59 539.88 272.40 C 537.91 267.40 535.90 262.41 533.97 257.40 M 555.22 303.68 C 559.46 304.78 563.79 303.15 567.42 301.00 C 567.41 297.89 567.41 294.79 567.42 291.69 C 563.48 290.33 559.19 289.36 555.05 290.30 C 549.17 291.93 549.47 302.06 555.22 303.68 Z"></path>
    <path fill="#fbb03b" opacity="1.00" d=" M 624.78 257.10 C 628.73 254.35 633.11 251.85 638.04 251.58 C 644.40 250.97 651.60 252.00 656.17 256.89 C 661.09 262.26 662.45 269.87 662.58 276.92 C 662.59 290.80 662.58 304.69 662.58 318.58 C 655.02 318.58 647.47 318.59 639.91 318.58 C 639.93 306.70 639.90 294.82 639.93 282.94 C 639.87 280.02 639.94 276.98 638.81 274.23 C 636.44 268.92 626.94 269.34 625.40 275.09 C 624.66 277.67 624.68 280.37 624.65 283.03 C 624.68 294.88 624.66 306.73 624.66 318.59 C 617.19 318.58 609.72 318.58 602.25 318.59 C 602.25 296.67 602.25 274.75 602.25 252.84 C 609.74 252.83 617.23 252.83 624.72 252.84 C 624.74 253.90 624.76 256.04 624.78 257.10 Z"></path>
    <path fill="#fbb03b" opacity="1.00" d=" M 749.23 257.41 C 760.58 252.15 773.49 250.25 785.85 252.14 C 792.26 253.15 798.41 256.90 801.26 262.88 C 803.36 266.90 804.03 271.50 804.01 275.99 C 803.99 290.19 804.01 304.39 804.00 318.58 C 796.88 318.58 789.77 318.59 782.66 318.58 C 782.65 317.18 782.66 315.79 782.69 314.40 C 776.99 318.46 769.92 320.93 762.87 319.75 C 755.52 318.99 748.71 313.83 746.67 306.62 C 744.17 298.05 744.83 287.25 752.17 281.17 C 760.69 274.41 773.00 274.61 782.74 278.48 C 782.75 274.88 782.98 269.81 778.72 268.47 C 770.76 266.35 762.23 268.58 755.13 272.41 C 753.17 267.40 751.17 262.41 749.23 257.41 M 771.20 303.85 C 775.26 304.58 779.27 303.05 782.68 300.96 C 782.66 297.85 782.66 294.76 782.65 291.66 C 778.63 290.33 774.24 289.29 770.05 290.38 C 764.16 292.35 764.94 302.94 771.20 303.85 Z"></path>
    <path fill="#fbb03b" opacity="1.00" d=" M 819.07 257.39 C 830.24 252.24 842.90 250.32 855.08 252.04 C 861.46 252.93 867.73 256.40 870.76 262.27 C 873.28 266.73 873.92 271.95 873.91 277.00 C 873.93 290.86 873.92 304.72 873.91 318.59 C 866.77 318.58 859.63 318.59 852.49 318.58 C 852.49 317.19 852.50 315.81 852.53 314.43 C 847.11 318.16 840.59 320.71 833.92 319.89 C 826.34 319.47 818.97 314.54 816.68 307.14 C 813.81 298.21 814.64 286.68 822.67 280.63 C 831.23 274.43 843.06 274.74 852.60 278.45 C 852.55 274.88 852.81 269.83 848.59 268.49 C 840.63 266.33 832.09 268.59 824.98 272.40 C 823.00 267.40 821.00 262.41 819.07 257.39 M 840.93 303.83 C 845.01 304.61 849.04 303.06 852.50 301.01 C 852.49 297.90 852.49 294.79 852.50 291.68 C 848.55 290.33 844.24 289.35 840.09 290.32 C 834.03 292.07 834.67 302.82 840.93 303.83 Z"></path>
    <path fill="#fbb03b" opacity="1.00" d=" M 909.79 257.32 C 916.17 250.80 926.59 249.68 934.49 254.03 C 932.77 261.90 930.94 269.75 929.23 277.62 C 926.94 275.61 924.65 273.32 921.61 272.54 C 918.28 271.72 914.26 272.14 911.87 274.83 C 909.94 277.09 909.87 280.23 909.82 283.05 C 909.84 294.89 909.83 306.74 909.83 318.59 C 902.33 318.58 894.83 318.58 887.34 318.59 C 887.34 296.66 887.32 274.74 887.35 252.82 C 894.84 252.85 902.34 252.82 909.85 252.83 C 909.83 253.96 909.80 256.20 909.79 257.32 Z"></path>
    <path fill="#fbb03b" opacity="1.00" d=" M 319.43 336.60 C 324.98 334.61 332.15 335.20 336.22 339.86 C 340.50 344.69 338.91 353.43 332.88 356.08 C 326.89 358.85 318.39 358.33 314.21 352.68 C 310.39 347.17 313.02 338.75 319.43 336.60 Z"></path>
    <path fill="#fbb03b" opacity="1.00" d=" M 506.39 336.52 C 511.94 334.61 519.09 335.28 523.08 340.00 C 527.10 344.78 525.65 353.13 519.92 355.92 C 513.97 358.84 505.44 358.44 501.10 352.92 C 497.00 347.37 499.70 338.55 506.39 336.52 Z"></path>
    <path fill="#fbb03b" opacity="1.00" d=" M 421.75 345.81 C 429.25 342.80 436.73 339.76 444.24 336.78 C 444.26 367.21 444.25 397.65 444.25 428.08 C 436.75 428.08 429.25 428.09 421.75 428.08 C 421.75 400.66 421.75 373.23 421.75 345.81 Z"></path>
    <path fill="#fbb03b" opacity="1.00" d=" M 860.26 345.69 C 867.59 342.72 874.91 339.73 882.25 336.78 C 882.25 345.30 882.25 353.81 882.25 362.33 C 887.00 362.34 891.75 362.33 896.50 362.34 C 896.50 368.26 896.50 374.18 896.49 380.10 C 891.74 380.07 886.99 380.08 882.25 380.09 C 882.28 388.08 882.20 396.08 882.26 404.08 C 882.29 406.23 882.67 409.03 885.06 409.82 C 889.27 411.33 893.42 408.92 896.93 406.80 C 895.91 413.22 894.96 419.65 894.01 426.08 C 887.45 428.98 880.07 430.22 872.96 429.11 C 869.04 428.49 865.18 426.42 863.18 422.90 C 860.61 418.40 860.29 413.08 860.25 408.02 C 860.24 398.71 860.26 389.40 860.25 380.09 C 856.91 380.08 853.58 380.08 850.25 380.08 C 850.25 374.16 850.25 368.25 850.25 362.33 C 853.58 362.34 856.91 362.33 860.25 362.33 C 860.25 356.78 860.24 351.23 860.26 345.69 Z"></path>
    <path fill="#fbb03b" opacity="1.00" d=" M 128.98 362.05 C 140.98 359.54 153.54 361.43 164.92 365.71 C 163.23 371.53 161.57 377.36 159.88 383.18 C 152.35 380.05 144.29 376.84 135.97 377.92 C 132.80 377.93 132.62 382.80 135.57 383.43 C 144.08 386.79 153.89 387.79 161.01 394.02 C 166.92 399.42 166.87 408.54 164.79 415.70 C 162.59 423.06 155.22 427.33 148.05 428.65 C 135.70 430.90 122.96 428.52 111.34 424.15 C 113.08 418.44 114.87 412.74 116.61 407.02 C 124.36 410.12 132.53 413.04 141.00 412.71 C 142.60 412.56 145.26 412.11 145.23 410.06 C 145.68 408.22 144.02 406.94 142.47 406.51 C 134.25 403.76 125.10 402.46 118.22 396.78 C 112.35 391.81 111.92 383.14 113.49 376.15 C 115.17 368.80 121.76 363.48 128.98 362.05 Z"></path>
    <path fill="#fbb03b" opacity="1.00" d=" M 198.46 361.62 C 208.21 359.86 219.21 361.40 226.86 368.13 C 233.94 374.28 236.87 383.90 237.07 393.03 C 237.50 402.75 235.42 413.23 228.55 420.51 C 219.43 430.19 204.03 431.71 192.11 426.86 C 182.46 422.95 176.47 413.08 175.13 403.05 C 173.79 393.00 174.53 382.02 180.24 373.33 C 184.26 367.01 191.16 362.92 198.46 361.62 M 202.29 380.23 C 197.27 383.17 197.22 389.87 197.06 395.00 C 197.14 399.63 197.31 404.78 200.32 408.59 C 203.20 412.11 209.46 411.78 211.89 407.89 C 214.52 403.80 214.60 398.69 214.60 393.99 C 214.43 389.97 214.22 385.59 211.75 382.24 C 209.65 379.35 205.39 378.67 202.29 380.23 Z"></path>
    <path fill="#fbb03b" opacity="1.00" d=" M 252.17 372.24 C 256.68 365.88 264.19 362.12 271.85 361.27 C 278.74 360.42 286.15 361.06 292.13 364.87 C 296.58 367.58 299.84 371.77 302.64 376.09 C 297.45 380.05 292.24 383.99 287.04 387.95 C 285.64 385.71 284.35 383.37 282.49 381.48 C 279.08 378.13 272.42 378.87 270.44 383.45 C 267.75 389.27 267.91 396.03 268.85 402.25 C 269.45 406.40 272.24 410.99 276.92 411.01 C 282.52 411.52 286.01 406.47 288.91 402.51 C 293.69 406.24 298.47 409.98 303.25 413.71 C 298.81 420.34 292.92 426.74 284.84 428.59 C 274.70 430.80 262.89 429.27 255.13 421.86 C 248.87 416.01 246.35 407.28 245.89 398.95 C 245.33 389.74 246.63 379.88 252.17 372.24 Z"></path>
    <path fill="#fbb03b" opacity="1.00" d=" M 352.87 366.93 C 364.91 361.39 378.80 359.39 391.81 362.17 C 401.34 364.14 407.51 373.59 407.60 382.98 C 407.76 398.01 407.62 413.05 407.66 428.08 C 400.55 428.09 393.44 428.08 386.33 428.08 C 386.34 427.05 386.35 424.97 386.36 423.93 C 380.76 427.82 373.94 430.34 367.05 429.33 C 359.67 428.73 352.67 423.76 350.45 416.58 C 347.64 407.72 348.44 396.35 356.31 390.27 C 364.88 383.90 376.84 384.26 386.45 387.96 C 386.39 384.33 386.57 379.11 382.16 377.92 C 374.25 375.90 365.82 378.13 358.77 381.90 C 356.81 376.91 354.82 371.92 352.87 366.93 M 375.00 413.39 C 379.03 414.03 383.00 412.54 386.37 410.42 C 386.33 407.33 386.33 404.24 386.33 401.16 C 382.40 399.89 378.19 398.91 374.08 399.78 C 367.73 401.36 368.45 412.65 375.00 413.39 Z"></path>
    <path fill="#fbb03b" opacity="1.00" d=" M 560.42 367.19 C 566.64 360.63 576.74 359.71 585.05 362.13 C 588.63 363.16 591.41 365.74 594.31 367.94 C 598.52 365.66 602.32 362.31 607.21 361.53 C 614.27 360.31 622.63 360.64 628.04 365.96 C 633.11 371.22 634.45 378.88 634.65 385.93 C 634.69 399.98 634.65 414.03 634.66 428.08 C 627.11 428.09 619.55 428.08 612.00 428.08 C 611.98 415.71 612.02 403.34 611.99 390.97 C 611.85 388.15 611.92 385.10 610.36 382.63 C 607.63 378.88 600.70 379.16 598.62 383.44 C 597.49 386.16 597.55 389.17 597.49 392.07 C 597.51 404.07 597.50 416.07 597.50 428.07 C 590.03 428.09 582.56 428.08 575.08 428.08 C 575.07 415.71 575.11 403.34 575.07 390.97 C 574.92 388.18 575.00 385.14 573.43 382.70 C 571.22 379.59 566.42 379.30 563.38 381.29 C 560.65 383.21 560.65 386.92 560.50 389.93 C 560.49 402.64 560.51 415.36 560.50 428.08 C 553.00 428.09 545.50 428.08 538.00 428.08 C 538.00 406.16 537.99 384.25 538.01 362.33 C 545.52 362.34 553.04 362.33 560.56 362.34 C 560.53 363.55 560.46 365.98 560.42 367.19 Z"></path>
    <path fill="#fbb03b" opacity="1.00" d=" M 670.75 366.78 C 674.70 364.02 678.96 361.17 683.96 361.03 C 691.08 360.21 698.67 363.30 702.43 369.56 C 708.43 379.16 708.67 391.02 708.03 401.98 C 707.36 411.05 704.81 421.33 696.61 426.51 C 688.50 431.61 677.75 429.87 670.57 423.93 C 670.60 430.39 670.58 436.85 670.58 443.32 C 663.11 446.33 655.64 449.33 648.17 452.33 C 648.16 422.33 648.17 392.33 648.17 362.33 C 655.66 362.33 663.15 362.34 670.64 362.33 C 670.67 363.81 670.71 365.29 670.75 366.78 M 670.65 382.28 C 670.50 390.85 670.63 399.42 670.57 408.00 C 673.97 410.40 678.94 412.50 682.75 409.79 C 686.03 406.08 685.55 400.66 685.82 396.05 C 685.57 391.04 686.09 385.34 683.00 381.06 C 679.39 377.75 674.19 380.04 670.65 382.28 Z"></path>
    <path fill="#fbb03b" opacity="1.00" d=" M 720.30 366.93 C 732.54 361.33 746.72 359.26 759.89 362.36 C 769.12 364.53 774.93 373.84 775.02 382.98 C 775.17 398.01 775.04 413.05 775.08 428.08 C 767.97 428.08 760.85 428.09 753.74 428.08 C 753.74 426.69 753.76 425.31 753.79 423.94 C 748.08 427.91 741.08 430.43 734.07 429.27 C 726.73 428.56 719.90 423.46 717.80 416.29 C 715.28 407.81 715.83 397.14 722.94 390.95 C 731.43 383.87 743.97 384.12 753.85 387.97 C 753.77 384.43 754.10 379.44 749.94 378.04 C 741.96 375.79 733.35 378.09 726.21 381.92 C 724.25 376.92 722.26 371.93 720.30 366.93 M 742.06 413.31 C 746.14 414.14 750.19 412.58 753.69 410.59 C 753.76 407.45 753.76 404.30 753.73 401.16 C 749.67 399.83 745.25 398.79 741.03 399.94 C 735.33 401.98 736.02 412.20 742.06 413.31 Z"></path>
    <path fill="#fbb03b" opacity="1.00" d=" M 792.28 372.29 C 796.78 365.95 804.24 362.14 811.89 361.29 C 819.00 360.38 826.69 361.10 832.78 365.19 C 836.99 367.90 840.08 371.94 842.79 376.08 C 837.60 380.05 832.39 383.98 827.20 387.95 C 825.76 385.69 824.47 383.28 822.54 381.40 C 819.28 378.32 813.08 378.78 810.89 382.91 C 807.97 388.40 808.15 394.98 808.78 401.00 C 809.21 405.46 811.77 410.83 816.89 410.99 C 822.56 411.63 826.13 406.50 829.07 402.51 C 833.84 406.25 838.63 409.98 843.40 413.73 C 838.97 420.29 833.18 426.64 825.18 428.54 C 814.94 430.84 803.01 429.30 795.19 421.79 C 789.03 415.94 786.51 407.31 786.05 399.05 C 785.47 389.83 786.76 379.96 792.28 372.29 Z"></path>
    <path fill="#fbb03b" opacity="1.00" d=" M 314.09 362.33 C 321.58 362.34 329.08 362.33 336.59 362.34 C 336.58 384.26 336.60 406.18 336.58 428.11 C 329.08 428.05 321.58 428.10 314.08 428.08 C 314.08 406.16 314.08 384.25 314.09 362.33 Z"></path>
    <path fill="#fbb03b" opacity="1.00" d=" M 500.81 362.35 C 508.32 362.32 515.83 362.33 523.34 362.35 C 523.33 384.26 523.34 406.17 523.33 428.08 C 515.83 428.08 508.33 428.09 500.84 428.08 C 500.81 406.17 500.87 384.26 500.81 362.35 Z"></path>
  </g>
</svg>
